<svg id="Layer_1" data-name="Layer 1" xmlns="http://www.w3.org/2000/svg" viewBox="0 0 64 64"><defs><style>.cls-1{fill:#D30F16;}.cls-2{fill:#fff;}</style></defs><rect class="cls-1" width="64" height="64"/><path class="cls-2" d="M46.74,39.25c-1.65-1.33-2.93-2-3.88-2s-1.62.64-2.73,1.77l-.37.37a2.25,2.25,0,0,1-1.63.65c-1.12,0-3.22-.59-8.2-5.6s-5.54-7-5.54-8.18A2.25,2.25,0,0,1,25,24.64l.37-.37c1.89-1.85,2.84-2.79-.22-6.6-1.05-1.31-2.05-2-2.93-2-1.24,0-2.43,1.26-3.48,2.36l-.66.67c-.78.79-1,3.17.36,6.72a36.29,36.29,0,0,0,8.34,12.14C33.26,44.05,39.82,47,43.5,47a3.2,3.2,0,0,0,2.24-.62c.21-.23.45-.44.67-.66,1.12-1.12,2.42-2.24,2.36-3.55A4.36,4.36,0,0,0,46.74,39.25Z"/></svg>