<svg fill="#D30F16" data-name="Layer 1" xmlns="http://www.w3.org/2000/svg" viewBox="0 0 58 54.02"><g id="_2" data-name=" 2"><path d="M59,32.24A1,1,0,0,0,59,32,27,27,0,0,0,46.8,9.44a1,1,0,0,0-.62-.4A26.91,26.91,0,0,0,17.82,9a1,1,0,0,0-.62.4A27,27,0,0,0,5,32a1,1,0,0,0,0,.24,3.28,3.28,0,0,0-2,3V37.7A3.28,3.28,0,0,0,6.26,41H57.73A3.29,3.29,0,0,0,61,37.73V35.27A3.26,3.26,0,0,0,59,32.24ZM57,32H46.26a1,1,0,0,0,0-.34l-4.35-12A1,1,0,0,0,41,19H36V7.32a25,25,0,0,1,9,3.33V18a1,1,0,0,0,2,0V12A25,25,0,0,1,57,32ZM34,7.09V20a1,1,0,0,0,1,1h5.22l4,11H19.79l4-11H29a1,1,0,0,0,1-1V7.09A14.8,14.8,0,0,1,32,7,14.8,14.8,0,0,1,34,7.09ZM17,12v6a1,1,0,0,0,2,0V10.65a25,25,0,0,1,9-3.33V19H23.08a1,1,0,0,0-.94.66l-4.35,12a1,1,0,0,0-.05.34H7A25,25,0,0,1,17,12ZM59,37.73A1.27,1.27,0,0,1,57.73,39H6.27A1.27,1.27,0,0,1,5,37.73H5V35.27A1.27,1.27,0,0,1,6.27,34H57.73A1.27,1.27,0,0,1,59,35.27h0Z" transform="translate(-3 -4.98)"/><path d="M58,45a1,1,0,0,0-1,1V44a1,1,0,0,0-1-1H8a1,1,0,0,0-1,1v2a1,1,0,0,0-2,0v7a1,1,0,0,0,2,0v2a1,1,0,0,0,.85,1l19.38,3h.15a1,1,0,0,0,.8-.39l3.82-5,3.82,5a1,1,0,0,0,.8.39h.15l19.38-3A1,1,0,0,0,57,55V53a1,1,0,0,0,2,0V46A1,1,0,0,0,58,45ZM27,56.92,9,54.14V45H31v6.66Zm28-2.78L37,56.92l-4-5.26V45H55Z" transform="translate(-3 -4.98)"/><path d="M39,55a1,1,0,0,0,.47-.12l13-7a1,1,0,0,0,.5-1.32,1,1,0,0,0-1.32-.5l-.12.06-13,7A1,1,0,0,0,39,55Z" transform="translate(-3 -4.98)"/><path d="M25.88,46.52a1,1,0,0,0-1.36-.4h0l-11,6a1,1,0,0,0-.41,1.35,1,1,0,0,0,1.37.41l11-6a1,1,0,0,0,.4-1.36Z" transform="translate(-3 -4.98)"/><path d="M40.14,50.49a1,1,0,0,0,.44-.11l6-3A1,1,0,0,0,47,46l0,0a1,1,0,0,0-1.34-.45l-6,3a1,1,0,0,0-.46,1.34,1,1,0,0,0,.91.56Z" transform="translate(-3 -4.98)"/><path d="M26.62,49.63l-5,3A1,1,0,0,0,21.27,54a1,1,0,0,0,.87.49,1,1,0,0,0,.51-.14l5-3a1,1,0,0,0-1-1.72Z" transform="translate(-3 -4.98)"/></g></svg>