<svg fill="#D30F16" data-name="Layer 1" xmlns="http://www.w3.org/2000/svg" viewBox="0 0 839.9 980"><path d="M316.4,990c-64.5-135.9-30.1-213.8,19.4-287.1C390.1,622.5,404.1,543,404.1,543s42.7,56.2,25.6,144c75.4-85,89.6-220.4,78.2-272.2C678.4,535.4,751.2,796.5,653,990c521.8-299.1,129.7-746.6,61.5-797.1,22.8,50.4,27.1,135.8-18.9,177.2C617.8,71.3,425.4,10,425.4,10c22.7,154.1-82.5,322.7-183.9,448.6-3.6-61.5-7.4-103.9-39.2-162.7-7.2,111.6-91.4,202.6-114.2,314.5C57.2,761.9,111.2,872.8,316.4,990Z" transform="translate(-80.03 -10)"/></svg>