<svg fill="#D30F16" data-name="Layer 1" xmlns="http://www.w3.org/2000/svg" viewBox="0 0 22 30"><g id="Layer_2" data-name="Layer 2"><g id="Interface-Light"><g id="interface-light-award-medal-1"><path d="M21.5,1H.5A.5.5,0,0,1,0,.5.5.5,0,0,1,.5,0h21a.5.5,0,0,1,.5.5A.5.5,0,0,1,21.5,1Z" transform="translate(0 0)"/><path d="M17,13l-.18,0a.51.51,0,0,1-.29-.65L21,.32A.51.51,0,0,1,21.68,0,.51.51,0,0,1,22,.68l-4.5,12A.51.51,0,0,1,17,13Z" transform="translate(0 0)"/><path d="M5,13a.51.51,0,0,1-.47-.32L0,.68A.52.52,0,0,1,.32,0,.51.51,0,0,1,1,.32l4.5,12a.52.52,0,0,1-.29.65Z" transform="translate(0 0)"/><path d="M11,30A10,10,0,1,1,21,20,10,10,0,0,1,11,30Zm0-19a9,9,0,1,0,9,9A9,9,0,0,0,11,11Z" transform="translate(0 0)"/><path d="M9,11a.51.51,0,0,1-.5-.45l-1-10a.5.5,0,0,1,1-.1l1,10a.51.51,0,0,1-.45.55Z" transform="translate(0 0)"/><path d="M13,11H13a.5.5,0,0,1-.45-.55l1-10A.52.52,0,0,1,14.05,0a.5.5,0,0,1,.45.55l-1,10A.51.51,0,0,1,13,11Z" transform="translate(0 0)"/><path d="M13.76,25.53a1,1,0,0,1-.55-.16L11,23.82l-2.2,1.5A1,1,0,0,1,7.37,25a1,1,0,0,1-.12-.84L8,21.52,5.88,19.76a1,1,0,0,1-.28-1.39,1,1,0,0,1,.92-.5l2.6-.11L10,15.14a1,1,0,0,1,1.33-.58,1,1,0,0,1,.59.63l.91,2.58,2.65.14a1.08,1.08,0,0,1,.71.28,1,1,0,0,1-.17,1.65l-2,1.67.7,2.71a1,1,0,0,1-.08.77,1,1,0,0,1-.62.5A.92.92,0,0,1,13.76,25.53ZM11,22.82a1,1,0,0,1,.58.18l2.19,1.54-.7-2.72a1.09,1.09,0,0,1,.33-1.08L15.48,19l.58-.09-.5,0-2.72-.15a1,1,0,0,1-.92-.71L11,15.52v0l-.93,2.59a1,1,0,0,1-.9.69l-2.65.11s0,.1,0,.11l2.07,1.71a1.11,1.11,0,0,1,.35,1.08l-.73,2.67L10.43,23A1,1,0,0,1,11,22.82Z" transform="translate(0 0)"/></g></g></g></svg>