<svg fill="#D30F16" data-name="Layer 1" xmlns="http://www.w3.org/2000/svg" viewBox="0 0 980 980"><path d="M867.2,412.5c.2-4.8.3-9.7.3-14.6,0-151-102.2-279.5-244.8-327.2L581.6,173.3V10H418.3V173.3l-41-102.6C234.7,118.4,132.5,246.9,132.5,397.9c0,4.9.1,9.8.3,14.6C56.4,452.1,10,504.2,10,561.3,10,640.4,99.4,710,234.4,750,279.9,890.1,394.6,990,500,990s220.1-99.9,265.6-240C900.6,710,990,640.4,990,561.3,990,504.2,943.6,452.1,867.2,412.5ZM500,132.5a81.7,81.7,0,1,1-81.7,81.7A81.73,81.73,0,0,1,500,132.5ZM745,663.3a26.2,26.2,0,0,1-2.8-.1c-20.9,160.1-132.8,286-242.2,286S284.6,822.9,258.8,663.3c-1.3.1-2.5.1-3.8.1a81.73,81.73,0,0,1-81.7-81.7c0-45.1,36.6-40.8,81.7-40.8h6.3c30.9-98.1,145.4-81.6,238.7-81.6s202.5-15.7,235.7,81.6H745c45.1,0,81.7-4.3,81.7,40.8A81.64,81.64,0,0,1,745,663.3Z" transform="translate(-10 -10)"/></svg>