<svg fill="#D30F16" data-name="Isolation Mode" xmlns="http://www.w3.org/2000/svg" viewBox="0 0 62 62"><defs><style>.cls-1{fill"#ff2c2b";}</style></defs><rect class="cls-1" x="14" y="55" width="34" height="6"/><rect class="cls-1" x="14" y="17" width="34" height="6"/><rect class="cls-1" x="14" y="27" width="4" height="12"/><rect class="cls-1" x="10" y="29" width="4" height="8"/><rect class="cls-1" x="44" y="27" width="4" height="12"/><rect class="cls-1" x="48" y="29" width="4" height="8"/><path class="cls-1" d="M19,18h0A12,12,0,0,1,31,6h2A12,12,0,0,1,45,18Z" transform="translate(-1 -1)"/><path class="cls-1" d="M31,6h2a12.18,12.18,0,0,1,2,.17V5a3,3,0,0,0-6,0V6.18A11.19,11.19,0,0,1,31,6Z" transform="translate(-1 -1)"/><path class="cls-1" d="M50,61V56a1,1,0,0,0-1-1H46V41h3a1,1,0,0,0,1-1V39h3a1,1,0,0,0,1-1V30a1,1,0,0,0-1-1H50V28a1,1,0,0,0-1-1H46V25h3a1,1,0,0,0,1-1V18a1,1,0,0,0-1-1H46A13,13,0,0,0,36,5.36V5a4,4,0,0,0-8,0v.36A13,13,0,0,0,18.05,17H15a1,1,0,0,0-1,1v6a1,1,0,0,0,1,1h3v2H15a1,1,0,0,0-1,1v1H11a1,1,0,0,0-1,1v8a1,1,0,0,0,1,1h3v1a1,1,0,0,0,1,1h3V55H15a1,1,0,0,0-1,1v5H1v2H63V61Zm2-30v6H50V31ZM12,37V31h2v6Zm36-8V39H46V29ZM43.24,14H41a1,1,0,0,1-1-1,3,3,0,0,0-6,0,1,1,0,0,1-2,0V11a3,3,0,0,0-3-3h-.06A3,3,0,0,0,26,11.06h0A1,1,0,0,1,24,11V9.52A11,11,0,0,1,31,7h2A11,11,0,0,1,43.24,14ZM30,5a2,2,0,0,1,4,0H30Zm-7.94,6.61A3,3,0,0,0,28,11a1,1,0,0,1,2,0v2a3,3,0,0,0,6,0,1,1,0,0,1,2,0,3,3,0,0,0,3,3h2.81c.06.33.11.66.14,1H20.05A11,11,0,0,1,22.06,11.61ZM16,19H48v4H16Zm0,20V29h2V39Zm4-14H44V55H42V47H40v8H36V47H34v8H30V47H28v8H24V47H22v8H20ZM16,57H48v4H16Z" transform="translate(-1 -1)"/><path class="cls-1" d="M32,43a8,8,0,1,0-8-8A8,8,0,0,0,32,43Zm0-14a6,6,0,1,1-6,6A6,6,0,0,1,32,29Z" transform="translate(-1 -1)"/></svg>