<svg fill="#D30F16" data-name="Layer 1" xmlns="http://www.w3.org/2000/svg" viewBox="0 0 854.6 980.01"><path d="M463.32,11.19C343.1,23.46,258,92.87,209.46,218.45c-20.71,53.49-33.17,114.85-36.81,181.19-1.34,25.5,0,33,7.48,36.81,2.3,1.15,15.53,2.3,29.91,2.49l25.88.58,2.3,14.19C243,481.9,258.35,513,272.16,521.78c3.45,2.49,5,5.94,6.9,17.83,5.37,31.83,21.28,76.69,44.48,125.2C333.7,686.28,337,695.3,337.92,704.5c2.11,19.56-4.41,44.29-13.81,52.54-2.11,1.72-7.86,3.83-13,4.6-16.11,2.3-60.59,13.8-83.6,21.67-41.22,14-73.82,29.91-105.45,51.19-25.12,16.87-37.58,28.38-43.33,39.88-16.49,32.4,2.49,72.28,38.15,80,138.81,29.72,331.31,42.18,501.76,32.4,110-6.33,255-26.46,279.54-38.92,18.21-9.39,29.14-27.61,29.14-49.27,0-24.35-12.46-40.65-50.81-66.34-50-33.36-118.87-59.44-184.06-69.6-18.21-2.88-22.24-5.94-28.19-20.9-3.26-8.63-4-14.57-4-29.91V692.62l12.65-25.88c22.43-46.21,41.61-100.47,46.59-132.29,1-6.9,3.07-10.55,10.54-17.83,12.27-12.08,24-35.66,28-56.94,1.72-9,3.26-17.45,3.64-18.79.58-1.73,7.67-2.3,27.61-2.3,26.46,0,27,0,32-5l5-5-1.34-25.12c-3.07-59.25-15.91-129.23-32.79-177.74-10-28.76-27.61-64.61-44.1-89.15-45.82-69-115.8-112.35-199.4-123.67C526.2,9.85,484.22,9.08,463.32,11.19ZM547.1,46.66c54.64,8.05,97.4,28.18,135,63.85,24.16,22.82,40.46,44.67,56.18,75,20.32,39.88,33.74,81.29,43.14,134.21,4.41,24.54,9.78,68.06,9.78,79V406H777.37c-24.73-.19-38-10.74-38-30.49,0-10.35-3.26-16.68-10-19.56-4.79-1.92-8.63-1.53-24.16,1.73-66.53,14.76-109.1,18.6-206.5,18.6-96.44,0-137.47-3.64-201.7-17.45-19.75-4.22-24.35-4.79-29.14-2.88-6.52,2.88-9.78,9.2-9.78,19.56,0,19.56-13.61,30.49-38.35,30.49h-14l1.34-19.17c5.56-85.32,32.4-172.56,71.32-231,13.8-21.09,40.84-49.66,60.4-64.23,32-23.77,74-40.26,117-45.82C477.12,42.83,525.63,43.4,547.1,46.66ZM324.31,398.1c107.37,18,245.42,17.83,353.36-.77,15.15-2.68,28-4.79,29-4.79.77,0,2.49,3.26,3.64,7.48,1.34,4,6,11.31,10.16,16.3l8.05,9-1.15,13.8c-2.3,26.46-12.66,48.51-28.18,59.63-5.37,3.83-9.78,8.82-10.35,11.12-.38,2.49-1.72,10.93-2.88,18.79-3.64,27.42-16.68,65.57-38.15,113.12-11.5,25.69-13.42,28.76-25.5,40.46-24.16,23.39-85.89,62.69-94.71,60.2-18.79-5.18-32.6-5.37-49.08-.58-5.56,1.53-9,1.34-16.3-1.15-17.83-6.14-48.51-26.27-81.1-53.68-16.11-13.42-16.3-13.8-29.14-40.46-21.09-44.48-35.47-85.32-40.07-115-1.15-7.48-2.49-16.1-3.07-19.56-.57-4.6-3.26-7.67-10.35-12.84-15.74-11.3-24.94-30.48-28.39-58.85l-1.73-14.19,6.9-7.67a66.89,66.89,0,0,0,10.93-16.87c3.45-8.63,4-9.2,9.39-8.24C298.81,393.69,311.66,396,324.31,398.1Zm57.33,332.47c13.23,10.93,39.69,28,53.88,35.09,15.72,7.67,35.85,13,42.37,11.5l4.6-1.15v55.6h-6.33c-31.06,0-92-30.87-111.78-56.56l-5.18-6.9,5-14.76c2.69-8,5.56-18,6.33-22,.57-3.83,1.72-7.09,2.3-7.09S377.23,727.12,381.64,730.57Zm251.74,22,4.79,15.72-7.29,8.82c-15.34,19-49.47,40.07-78.42,48.51-14.76,4.41-34.9,7.86-36.43,6.33-.58-.58-1-13.8-1-29.53V773.9l4.41,1.53c8,2.88,18.21,1,34.13-6.52,17.83-8.44,44.86-24.73,61.16-37l10.55-7.86,1.53,6.33C627.82,733.83,630.7,743.8,633.38,752.62ZM344.44,802.47c80.72,84.55,222.79,86.47,304.66,4l14.95-15.15,21.28,3.83c77.08,13.8,136.9,38,185.41,74.39,17.45,12.85,24,21.09,24,29.14,0,6.71-6.52,16.49-12.85,19.75-6.52,3.26-91.07,18.6-102.58,18.6h-5.37V913.48c0-22.05-.38-24.35-5.18-34.13q-10.63-20.72-32.21-22.43c-14.19-1.15-65.57,3.26-72.86,6.33-8,3.26-17.64,11.7-21.67,19-2.49,4.6-3.45,12.65-4.22,37.58l-1,31.64-13.42,1.73c-22.24,2.68-221.45,2.49-260.76-.38-78.23-5.75-161.25-15.91-217.42-27-25.5-5-28.18-5.94-33.17-11.5-4.22-4.79-5.37-7.86-5.37-15,0-8.24.77-9.78,9.2-17.83,30.1-29,98.17-61.93,160.48-77.84,17.07-4.41,50.43-11.7,55.6-12.08C332.94,791.35,338.5,796.33,344.44,802.47Zm392.67,89c2.49,2.49,3.45,51.38,1,51.38-1,0-12.65,1.34-26.46,2.88-13.61,1.53-28.57,2.88-33,2.88h-8.25V923.84c0-20.51.58-25.12,3.07-27.22,1.92-1.54,12.27-3.64,24.54-4.79C727.52,888.75,734.42,888.75,737.11,891.43Z" transform="translate(-72.68 -10)"/><path d="M358.63,445.08c-4,3.45-5.37,6.14-5.37,11.7s1.34,8.24,5.37,11.7c4.6,4,7.09,4.6,20.52,4.6H394.3v5.75c0,8.44,7.86,15.34,17.64,15.34,9.2,0,18.79-8.24,18.79-16.11,0-5,.19-5,14.19-5,12.27,0,15.15-.58,19.56-4.6a15,15,0,0,0,0-23.39c-5.18-4.6-5.56-4.6-52.92-4.6S363.81,440.48,358.63,445.08Z" transform="translate(-72.68 -10)"/><path d="M533.3,445.27a16.2,16.2,0,0,0,0,23c4,4.22,6.33,4.79,19.17,4.79h14.38v5.75c0,14.76,19.75,20.9,30.87,9.78,3.26-3.26,5.56-7.67,5.56-10.54,0-5,0-5,16.11-5,15.72,0,16.3-.19,21.09-5.94,2.68-3.26,5-7.86,5-10.35s-2.3-7.09-5-10.35l-5-5.94H537.9Z" transform="translate(-72.68 -10)"/><path d="M452.77,617.83a16.2,16.2,0,0,0,0,23c4.6,4.79,4.6,4.79,45.63,4.79,40.84,0,41,0,46.21-4.79a15.67,15.67,0,0,0,.19-23c-4.6-4.79-4.6-4.79-46-4.79S457.37,613,452.77,617.83Z" transform="translate(-72.68 -10)"/></svg>