<svg fill="#D30F16" data-name="Layer 1" xmlns="http://www.w3.org/2000/svg" viewBox="0 0 980.03 978.44"><path d="M95.17,12.92a101,101,0,0,0-13.59,5.55c-8.23,4.21-21.44,19.14-26.22,29.67-4.21,8.8-4.21,10.34-4.78,137.8-.57,117.13-.19,129.19,2.68,135.51,1.72,3.64,5.36,7.85,8.23,9.19,4,2.11,32.92,4.78,60.1,5.36,9.95.19,14.74-5.74,27.18-34.07,23-52.06,43.06-79.43,70.82-96.85,10.72-6.7,18-8.8,43.45-13,30.24-5,30.62-5.17,37.9-28.9C313.38,122,353.76,92.55,397.4,92.55c31.77,0,50.34,8.61,76.18,34.83,17.61,17.8,19.14,18.76,26.6,18.76,6.51,0,9-1.15,14-6.32,21.63-23.16,26.79-27.94,36.37-33.69,14.74-8.8,32.92-13.59,51.87-13.59,44,0,84.21,29.47,96.65,70.62,7.27,23.73,7.46,23.92,38.85,29.09,17.61,2.68,26.79,5.36,36.94,10.34,29.67,14.55,56.65,51.1,81,110.24,7.27,17.42,12.44,23,21.44,23,29.09-.19,58.57-2.3,62.2-4.21,10.34-5.55,10.34-4.59,10.34-138.38q0-123.45-2.11-133.59a64,64,0,0,0-35.22-44l-9.57-4.4-400-.38C184,10.63,101.3,11,95.17,12.92Zm147.37,40.2c11.68,5,12.44,9,12.44,59.52,0,49.19-.77,53.59-10.91,58.18-3.06,1.34-27.75,2.11-72.54,2.11H103.4l-5.55-5.55-5.55-5.55V113c0-46.89.19-48.81,4-53.78,2.3-2.87,5.93-6.13,8.23-6.89,2.11-1,32.73-1.72,67.75-1.72C223.21,50.44,237.19,51,242.54,53.12Zm659.55,4.59,5.55,6.13v98l-5.55,5.55-5.55,5.55H828.4c-73.11,0-75.79-.38-80.77-9.76-4.21-8.23-3.83-93.4.38-101.44,5.55-10.91,8.42-11.29,81.72-10.72l66.8.38Z" transform="translate(-10 -10.78)"/><path d="M380,135.42c-16.46,5.36-28.9,16.08-37.32,32.35-3.44,6.51-4.4,12.44-5.36,32l-1,23.92-26.8,2.3C276,229,255,232.84,244.25,238c-4.59,2.3-13.78,10-20.48,17.23C202.72,277.82,184.34,316.1,161.18,385l-13,39.05-10.34-19.71c-5.55-10.91-12.25-21.25-14.93-23.16-7.27-5.17-33.49-8.23-48.81-5.74-14.93,2.49-30.24,9.19-39.43,17.23C21.29,404.33,10,433,10,455.62c0,12.06,2.49,18.95,9.19,26C30.67,493.9,46,498.3,80.24,500l25.26,1.15L95.17,516.29C84.45,531.79,68.76,562,66.46,571.41c-1.15,4.4-.57,5.36,3.25,6.13,2.3.57,32,6.32,65.65,12.82,34.83,6.7,66.6,13.78,73.69,16.65,48.61,19,82.68,61.44,85.74,107,1.15,16.84-1.34,23.73-10.34,28.52l-6.51,3.63L169.23,724.33c-59.72-11.87-111-22-114.07-22.59l-5.36-1.15,1,58.18c1,64.88,3.45,82.11,14.35,105.46,5.74,11.87,5.93,12.82,6.51,46.51.57,32,1,35.22,5.36,44a67.39,67.39,0,0,0,29.67,29.67c9.38,4.79,10.33,4.79,56.46,4.79s47.08,0,56.46-4.79c12.25-6.13,23.73-17.61,29.67-29.67,3.44-7.47,4.79-13.59,5.36-28.14l.77-18.76h489.2l.77,18.76c.57,14.55,1.91,20.67,5.36,28.14,5.93,12.06,17.42,23.54,29.67,29.67,9.38,4.79,10.34,4.79,56.46,4.79h46.89l12.06-6.51c13.4-7.27,19.14-13.21,26.79-27.75,5-9.38,5.17-11.1,5.74-44.21.57-33.69.77-34.64,6.51-46.51,10.91-23.16,13.4-40.58,14.36-105.46l1-58.18-5.36,1.15c-3.06.58-54.36,10.72-113.88,22.59-99.53,19.9-108.71,21.43-114.46,19.14-8-3.45-11.67-10.91-11.67-24.5,0-44.21,37.51-94.17,83.83-111.58,10.14-3.83,128.62-28.52,137.23-28.71S935.4,576,930.62,564c-5.93-14.74-17-35-27.56-50.34l-8.8-12.44L919.72,500c34.07-1.53,49.57-6.12,61.06-18.37,9.76-10.33,11.67-25.07,6.31-48.23-8.23-34.64-30.62-54.74-65.46-58.57-14-1.72-38.28,1.72-44.59,6.32-2.68,1.91-9.38,12.44-15.12,23.16l-10.14,19.9L838.55,384.8c-14.93-45-29.86-80.58-43.06-103.16-11.1-18.95-28.71-38.09-39.81-43.64-10.72-5.17-31.77-9-65.27-12.06l-26.79-2.3-1-23.92c-1-19.71-1.91-25.46-5.36-32.15-6.7-12.63-16.84-22.78-28.71-28.52-9.19-4.59-13.21-5.36-26.22-5.36-19.52.19-31.77,5.17-44,18.37-12.82,13.78-16.46,23.35-17.8,47.08l-1,19.71H460.35l-1-19.71c-.77-14.16-2.3-22.39-5-28.71-5.55-12.63-19.71-27-31.58-32C410.59,133.12,391.07,131.78,380,135.42ZM630.12,262.89c48.62,2.11,79,4.59,95.7,7.85,8.8,1.72,12.06,3.64,20.1,12.06,11.1,11.29,24.69,36.56,37.9,70.05C791.08,371.41,819.6,456,819.6,459.06c0,.57-143.93,1-319.82,1-303.55,0-319.63-.19-318.67-3.44,24.31-78.85,36.36-111.77,53.4-144.89,12.82-24.88,25.26-38.09,38.66-40.77,14-2.87,50.53-6.13,89-7.85C412.5,260.78,579,260.78,630.12,262.89Zm23,363.07c6.13,3.44,9.57,9.76,9.57,17,0,6.32-18.57,118.28-21,127.47-1.15,3.83-4.21,8.8-7.08,10.91-4.79,4-6.7,4-134.93,4H369.44l-5.36-5.55c-6.7-6.51-5.55-1.72-17.23-72.54-10.34-62.39-10.72-67.75-6.89-74.83,5.55-10,1-9.57,159.62-9.76C634.52,622.71,648.11,622.9,653.08,626Z" transform="translate(-10 -10.78)"/><path d="M381.3,664.05c0,1.53,11.29,69.28,12.63,75.79l1.15,5.36H604.84l1.15-5.36c1.34-6.51,12.63-74.26,12.63-75.79,0-.58-53.4-1.15-118.66-1.15S381.3,663.47,381.3,664.05Z" transform="translate(-10 -10.78)"/><path d="M53.26,629.79c-.77,7.08-1.53,16.65-2.11,21.05l-.77,8,9.95,1.91C154.88,680.31,249.24,698.3,249.24,697c0-5-9.57-19.14-19.9-29.28-20.1-19.71-27-22.39-96.27-36.17-33.49-6.7-64.88-12.63-69.86-13.4l-8.8-1.34Z" transform="translate(-10 -10.78)"/><path d="M934.43,618.3c-2.68.38-32.54,6.32-66.41,13-69.09,13.59-76.37,16.27-94.93,33.3-10.34,9.57-22.39,26.8-22.39,32,0,1.72,82.11-13.78,188.71-35.6l9.76-2.1-.57-8C945.34,613,946.87,616.2,934.43,618.3Z" transform="translate(-10 -10.78)"/></svg>